<?xml version="1.0" encoding="utf-8"?>
<!-- Generator: Adobe Illustrator 21.1.0, SVG Export Plug-In . SVG Version: 6.00 Build 0)  -->
<svg version="1.1" id="Layer_2" xmlns="http://www.w3.org/2000/svg" xmlns:xlink="http://www.w3.org/1999/xlink" x="0px" y="0px"
	 viewBox="0 0 1920 1260" style="enable-background:new 0 0 1920 1260;" xml:space="preserve">
<path d="M-0.5,804.5l240-10L515,805h157l42-10l96,10l164-5h78c0,0-29-133-12-179c0,0,353-44,567,0l9,6l-3,52l6,3l38-16l23-3l21,2
	l19,8l20,14l14,20l7,17l3,18l-4,28l-11,21h171V0H0L-0.5,804.5z"/>
<polygon points="1601,791 1604,767 1620,754 1630,731 1644,708 1665,695 1701,695 1722,710 1736,737 1736,757 1718,791 "/>
</svg>
